<svg id="Layer_35" enable-background="new 0 0 64 64" height="512" viewBox="0 0 64 64" width="512" xmlns="http://www.w3.org/2000/svg"><path d="m32 19c-1.654 0-3 1.346-3 3s1.346 3 3 3 3-1.346 3-3-1.346-3-3-3zm0 4c-.551 0-1-.449-1-1s.449-1 1-1 1 .449 1 1-.449 1-1 1z"/><path d="m47.186 39.162c-1.314-.853-2.557-1.656-3.386-2.762l-.081-.096c-.017-.017-1.719-1.904-1.719-7.304v-1h-1c-.452 0-.894.064-1.321.174l-4.396-23.711c-.261-1.427-1.502-2.463-2.952-2.463h-.321l-.143-1h-.867c-1.641 0-3.038 1.227-3.249 2.841l-3.496 24.315c-.407-.1-.827-.156-1.255-.156h-1v1c0 5.4-1.702 7.287-1.707 7.293l-.093.107c-.829 1.105-2.071 1.909-3.386 2.762-3.036 1.967-6.814 4.414-6.814 11.838v2c0 5.794 3.635 10 8.644 10h3.356c4.199 0 7.653-3.252 7.976-7.37l2.024-1.012-.006-5.23-.541-.279c-.015-.008-1.453-.767-1.453-2.109 0-1.928.985-11.801.995-11.9l.042-.418-1.002-1.203c.14-1.297.797-2.548 1.97-3.733 1.031 1.043 1.796 2.299 1.947 3.75l-.988 1.185.042.418c.009.1.994 9.973.994 11.901 0 1.342-1.438 2.101-1.447 2.105l-.553.277v5.236l2.024 1.012c.323 4.118 3.777 7.37 7.976 7.37h3.356c5.009 0 8.644-4.206 8.644-10v-2c0-7.424-3.778-9.871-6.814-11.838zm-14.855-35.162c.483 0 .897.346.984.824l1.887 10.176h-1.335l-1.571-11zm-2.331 49.382-2 1v.618c0 3.309-2.691 6-6 6h-3.356c-3.912 0-6.644-3.29-6.644-8v-2c0-6.336 2.867-8.193 5.902-10.16 1.144-.74 2.306-1.517 3.267-2.526l2.277 1.518 1.109-1.664-2.151-1.434c.212-.372.446-.863.669-1.484l2.372 1.581 1.109-1.664-2.931-1.954c.171-.871.301-1.883.352-3.066.594.186 1.128.539 1.537 1.029l3.451 4.142c-.192 1.943-.963 9.869-.963 11.682 0 1.848 1.248 3.016 2 3.552zm-1.558-21.814-1.393-1.672c-.269-.322-.573-.605-.901-.85l.398-2.765c.934.388 2.483 1.118 3.932 2.168-.954.988-1.634 2.029-2.036 3.119zm-1.604-7.327 2.895-20.128c.042-.326.207-.61.443-.81l1.957 13.697h3.44l2.239 12.075c-.313.238-.602.512-.86.821l-1.395 1.674c-1.582-4.28-6.992-6.665-8.719-7.329zm25.162 28.759c0 4.71-2.732 8-6.644 8h-3.356c-3.309 0-6-2.691-6-6v-.618l-2-1v-2.83c.752-.536 2-1.704 2-3.552 0-1.813-.771-9.739-.963-11.682l3.452-4.142c.408-.49.942-.843 1.536-1.029.051 1.183.181 2.195.352 3.066l-2.931 1.954 1.109 1.664 2.372-1.581c.223.62.457 1.112.669 1.484l-2.151 1.434 1.109 1.664 2.277-1.518c.96 1.009 2.123 1.785 3.267 2.526 3.035 1.967 5.902 3.824 5.902 10.16z"/><path d="m43 43c-5 0-5 5.008-5 8v1c0 3.371 1.564 7 5 7h2c3.436 0 5-3.629 5-7v-1c0-3.848-2.676-8-7-8zm5 9c0 1.729-.627 5-3 5h-2c-2.373 0-3-3.271-3-5v-1c0-4.065.449-6 3-6 3.411 0 5 3.58 5 6z"/><path d="m21 43c-4.324 0-7 4.152-7 8v1c0 3.371 1.564 7 5 7h2c3.436 0 5-3.629 5-7v-1c0-2.992 0-8-5-8zm3 9c0 1.729-.627 5-3 5h-2c-2.373 0-3-3.271-3-5v-1c0-2.42 1.589-6 5-6 2.551 0 3 1.935 3 6z"/></svg>